<svg width="26" height="24" viewBox="0 0 26 24" fill="none" xmlns="http://www.w3.org/2000/svg">
<path d="M17 22V19H14V17H17V14H19V17H22V19H19V22H17ZM5 20C4.45 20 3.979 19.8043 3.587 19.413C3.19567 19.021 3 18.55 3 18V6C3 5.45 3.19567 4.97933 3.587 4.588C3.979 4.196 4.45 4 5 4H6V2H8V4H14V2H16V4H17C17.55 4 18.021 4.196 18.413 4.588C18.8043 4.97933 19 5.45 19 6V12.1C18.6667 12.05 18.3333 12.025 18 12.025C17.6667 12.025 17.3333 12.05 17 12.1V10H5V18H12C12 18.3333 12.025 18.6667 12.075 19C12.125 19.3333 12.2167 19.6667 12.35 20H5Z" fill="black"/>
<path d="M14 22C8.477 22 4 17.523 4 12C4 6.477 8.477 2 14 2C19.523 2 24 6.477 24 12C24 17.523 19.523 22 14 22ZM12.05 11C12.1366 10.5747 12.3325 10.1792 12.6184 9.85258C12.9042 9.52593 13.2702 9.27933 13.6803 9.13706C14.0903 8.99478 14.5304 8.96172 14.9571 9.04114C15.3839 9.12056 15.7826 9.30972 16.114 9.59L17.815 8.457C17.2309 7.82076 16.476 7.36606 15.6405 7.14717C14.805 6.92829 13.9242 6.95447 13.1031 7.22259C12.2821 7.49072 11.5556 7.98945 11.0103 8.65926C10.465 9.32907 10.124 10.1417 10.028 11H9V13H10.027C10.1229 13.8586 10.4638 14.6714 11.0092 15.3414C11.5545 16.0114 12.2812 16.5103 13.1024 16.7784C13.9236 17.0466 14.8047 17.0727 15.6404 16.8536C16.476 16.6345 17.2309 16.1796 17.815 15.543L16.114 14.409C15.7826 14.6893 15.384 14.8785 14.9573 14.9579C14.5307 15.0374 14.0907 15.0044 13.6806 14.8623C13.2705 14.7201 12.9046 14.4736 12.6186 14.1471C12.3327 13.8206 12.1368 13.4252 12.05 13L17 13.001V11.001H12.05V11Z" fill="black"/>
</svg>
